<svg width="21" height="21" viewBox="0 0 21 21" fill="none" xmlns="http://www.w3.org/2000/svg">
<path fill-rule="evenodd" clip-rule="evenodd" d="M10.5 18.9001C12.7278 18.9001 14.8644 18.0151 16.4397 16.4398C18.015 14.8645 18.9 12.7279 18.9 10.5001C18.9 8.27228 18.015 6.13571 16.4397 4.5604C14.8644 2.9851 12.7278 2.1001 10.5 2.1001C8.27218 2.1001 6.13561 2.9851 4.5603 4.5604C2.985 6.13571 2.1 8.27228 2.1 10.5001C2.1 12.7279 2.985 14.8645 4.5603 16.4398C6.13561 18.0151 8.27218 18.9001 10.5 18.9001ZM14.3923 9.14245C14.5836 8.94441 14.6894 8.67918 14.6871 8.40388C14.6847 8.12857 14.5742 7.86522 14.3796 7.67054C14.1849 7.47586 13.9215 7.36543 13.6462 7.36304C13.3709 7.36065 13.1057 7.46648 12.9076 7.65775L9.45 11.1154L8.09235 9.75775C7.89432 9.56648 7.62908 9.46065 7.35378 9.46304C7.07847 9.46543 6.81512 9.57586 6.62044 9.77054C6.42576 9.96522 6.31533 10.2286 6.31294 10.5039C6.31055 10.7792 6.41638 11.0444 6.60765 11.2424L8.70765 13.3424C8.90455 13.5393 9.17158 13.6499 9.45 13.6499C9.72842 13.6499 9.99544 13.5393 10.1923 13.3424L14.3923 9.14245Z" fill="url(#paint0_linear_26_98)"/>
<defs>
<linearGradient id="paint0_linear_26_98" x1="3.65504" y1="5.54176" x2="24.8903" y2="13.2015" gradientUnits="userSpaceOnUse">
<stop offset="0.0417277" stop-color="#FF814A"/>
<stop offset="0.9999" stop-color="#FFA825"/>
<stop offset="1" stop-color="#F1F37C"/>
</linearGradient>
</defs>
</svg>
